<svg width="25" height="21" viewBox="0 0 25 21" fill="none" xmlns="http://www.w3.org/2000/svg">
<path d="M21.1532 2.55682C19.5698 1.8187 17.8554 1.28298 16.0697 0.973443C16.054 0.972943 16.0385 0.975881 16.0241 0.982052C16.0097 0.988222 15.9968 0.997476 15.9863 1.00916C15.7721 1.40203 15.522 1.91395 15.3554 2.30681C13.4613 2.02109 11.535 2.02109 9.64094 2.30681C9.47427 1.90204 9.22426 1.40203 8.99806 1.00916C8.98616 0.985349 8.95044 0.973443 8.91473 0.973443C7.12896 1.28298 5.42653 1.8187 3.83125 2.55682C3.81935 2.55682 3.80744 2.56873 3.79554 2.58063C0.557354 7.426 -0.335528 12.1404 0.10496 16.8072C0.10496 16.831 0.116865 16.8548 0.140675 16.8667C2.28359 18.4382 4.34317 19.3906 6.37894 20.0216C6.41466 20.0335 6.45037 20.0216 6.46228 19.9978C6.93848 19.343 7.36706 18.6525 7.73612 17.9263C7.75993 17.8787 7.73612 17.831 7.6885 17.8191C7.00991 17.5572 6.36704 17.2477 5.73607 16.8905C5.68845 16.8667 5.68845 16.7953 5.72416 16.7596C5.85512 16.6643 5.98607 16.5572 6.11703 16.462C6.14084 16.4382 6.17656 16.4382 6.20037 16.4501C10.2957 18.3192 14.7125 18.3192 18.7602 16.4501C18.784 16.4382 18.8198 16.4382 18.8436 16.462C18.9745 16.5691 19.1055 16.6644 19.2364 16.7715C19.2841 16.8072 19.2841 16.8786 19.2245 16.9025C18.6055 17.2715 17.9507 17.5691 17.2721 17.831C17.2245 17.843 17.2126 17.9025 17.2245 17.9382C17.6054 18.6644 18.034 19.3549 18.4983 20.0097C18.534 20.0216 18.5698 20.0335 18.6055 20.0216C20.6531 19.3906 22.7127 18.4382 24.8556 16.8667C24.8794 16.8548 24.8914 16.831 24.8914 16.8072C25.4152 11.4142 24.0223 6.73551 21.2008 2.58063C21.1889 2.56873 21.177 2.55682 21.1532 2.55682ZM8.35519 13.9619C7.12896 13.9619 6.10512 12.8309 6.10512 11.438C6.10512 10.0451 7.10515 8.91414 8.35519 8.91414C9.61713 8.91414 10.6172 10.057 10.6052 11.438C10.6052 12.8309 9.60522 13.9619 8.35519 13.9619ZM16.653 13.9619C15.4268 13.9619 14.403 12.8309 14.403 11.438C14.403 10.0451 15.403 8.91414 16.653 8.91414C17.915 8.91414 18.915 10.057 18.9031 11.438C18.9031 12.8309 17.915 13.9619 16.653 13.9619Z" fill="black"/>
</svg>
