<svg width="25" height="21" viewBox="0 0 25 21" fill="none" xmlns="http://www.w3.org/2000/svg">
<path d="M22.0088 4.24375C21.9137 3.87125 21.6438 3.59 21.335 3.50375C20.7875 3.35 18.1263 3 12.5013 3C6.87625 3 4.21625 3.35 3.665 3.50375C3.36 3.58875 3.09 3.87 2.99375 4.24375C2.8575 4.77375 2.50125 6.99375 2.50125 10.5C2.50125 14.005 2.8575 16.225 2.99375 16.7575C3.08875 17.1287 3.35875 17.41 3.66625 17.495C4.21625 17.65 6.875 18 12.5 18C18.125 18 20.7863 17.65 21.3363 17.4963C21.6413 17.4113 21.9113 17.13 22.0075 16.7562C22.145 16.2262 22.5 14 22.5 10.5C22.5 7 22.145 4.775 22.0088 4.24375ZM24.4287 3.6225C25 5.85 25 10.5 25 10.5C25 10.5 25 15.15 24.4287 17.3775C24.1112 18.6088 23.1825 19.5775 22.0062 19.905C19.8713 20.5 12.5 20.5 12.5 20.5C12.5 20.5 5.13375 20.5 2.99375 19.905C1.8125 19.5725 0.885 18.605 0.57125 17.3775C3.72529e-08 15.15 0 10.5 0 10.5C0 10.5 3.72529e-08 5.85 0.57125 3.6225C0.88875 2.39125 1.8175 1.4225 2.99375 1.095C5.135 0.5 12.5013 0.5 12.5013 0.5C12.5013 0.5 19.8713 0.5 22.0075 1.095C23.1875 1.4275 24.1163 2.395 24.43 3.6225M10.0013 14.875V6.125L17.5012 10.5L10.0013 14.875Z" fill="black"/>
</svg>
